<?xml version="1.0" encoding="iso-8859-1"?>
<!-- Generator: Adobe Illustrator 19.0.0, SVG Export Plug-In . SVG Version: 6.00 Build 0)  -->
<svg version="1.1" id="Capa_1" xmlns="http://www.w3.org/2000/svg" xmlns:xlink="http://www.w3.org/1999/xlink" x="0px" y="0px"
	 viewBox="0 0 512.001 512.001" style="enable-background:new 0 0 512.001 512.001;" xml:space="preserve">
<circle style="fill:#FFC477;" cx="282.172" cy="66.37" r="58.873"/>
<path style="fill:#FFA733;" d="M255.378,66.373c0-26.951,18.117-49.656,42.832-56.643c-5.102-1.441-10.478-2.23-16.042-2.23
	c-32.515,0-58.873,26.358-58.873,58.873s26.359,58.873,58.873,58.873c5.564,0,10.94-0.789,16.042-2.231
	C273.495,116.029,255.378,93.325,255.378,66.373z"/>
<g>
	
		<rect x="146.681" y="343" transform="matrix(0.7071 -0.7071 0.7071 0.7071 -191.4983 264.3964)" style="fill:#C70024;" width="153.449" height="40.714"/>
	<polygon style="fill:#C70024;" points="334.11,143.883 334.119,201.379 402.116,269.376 430.905,240.586 	"/>
</g>
<polygon style="fill:#FF6243;" points="320.825,294.683 334.133,281.373 334.11,143.883 315.473,125.247 248.813,125.247 
	133.432,240.586 162.221,269.376 249.984,181.613 249.984,281.375 337.828,369.265 337.828,369.265 337.828,446.048 
	378.542,446.048 378.542,352.401 "/>
<g>
	<polygon style="fill:#C70024;" points="158.897,240.586 274.278,125.247 248.813,125.247 133.432,240.586 162.221,269.376 
		174.953,256.643 	"/>
	<polygon style="fill:#C70024;" points="363.293,369.265 275.449,281.375 275.449,181.613 249.984,207.077 249.984,281.375 
		337.828,369.265 337.828,369.265 337.828,446.048 363.293,446.048 	"/>
</g>
<g>
	<path style="fill:#A258CD;" d="M248.813,125.247h-25.101c-17.191,0-31.127,13.936-31.127,31.127v25.081L248.813,125.247z"/>
	<polygon style="fill:#A258CD;" points="249.984,181.613 192.585,239.012 192.585,265.75 205.168,278.333 249.984,278.333 	"/>
</g>
<g>
	<path style="fill:#8034AD;" d="M213.785,156.373c0-17.191,13.936-31.127,31.127-31.127h-21.2
		c-17.191,0-31.127,13.936-31.127,31.127v25.081l21.2-21.192V156.373z"/>
	<polygon style="fill:#8034AD;" points="213.785,239.012 249.984,202.812 249.984,181.613 192.585,239.012 192.585,265.75 
		205.168,278.333 226.368,278.333 213.785,265.75 	"/>
</g>
<path style="fill:#FFA733;" d="M249.984,278.333L249.984,278.333V125.246h28.434v124.652
	C278.418,265.603,265.688,278.333,249.984,278.333z"/>
<path style="fill:#FF6243;" d="M264.201,125.247h-14.217v153.087l0,0c5.181,0,10.034-1.393,14.217-3.813V125.247z"/>
<rect x="249.982" y="125.25" style="fill:#A258CD;" width="28.434" height="97.75"/>
<rect x="249.982" y="125.25" style="fill:#8034AD;" width="14.217" height="97.75"/>
<path style="fill:#FFA733;" d="M421.668,471.667H206.835c-5.76-5.76-8.99-8.99-14.75-14.75v-10.869h244.333v10.869
	C430.658,462.677,427.429,465.906,421.668,471.667z"/>
<path style="fill:#FF6243;" d="M235.585,446.048h-43.5v10.869c5.76,5.76,8.99,8.99,14.75,14.75h43.5
	c-5.76-5.76-8.99-8.99-14.75-14.75V446.048z"/>
<g>
	<circle style="fill:#D8D7DA;" cx="243.582" cy="488.08" r="16.417"/>
	<circle style="fill:#D8D7DA;" cx="384.922" cy="488.08" r="16.417"/>
</g>
<g>
	<path style="fill:#ACABB1;" d="M242.677,488.083c0-6.261,3.507-11.701,8.663-14.469c-2.31-1.24-4.949-1.947-7.754-1.947
		c-9.067,0-16.417,7.35-16.417,16.417s7.35,16.417,16.417,16.417c2.805,0,5.444-0.707,7.754-1.947
		C246.184,499.784,242.677,494.345,242.677,488.083z"/>
	<path style="fill:#ACABB1;" d="M384.01,488.083c0-6.261,3.507-11.701,8.663-14.469c-2.31-1.24-4.949-1.947-7.754-1.947
		c-9.067,0-16.417,7.35-16.417,16.417s7.35,16.417,16.417,16.417c2.805,0,5.444-0.707,7.754-1.947
		C387.517,499.784,384.01,494.345,384.01,488.083z"/>
</g>
<g>
	<rect x="117.912" y="79.5" style="fill:#1D1D1F;" width="15" height="15"/>
	<rect x="142.912" y="79.5" style="fill:#1D1D1F;" width="56.939" height="15"/>
	<rect x="92.912" y="79.5" style="fill:#1D1D1F;" width="15" height="15"/>
	<rect x="92.912" y="162.5" style="fill:#1D1D1F;" width="28.18" height="15"/>
	<rect x="156.082" y="162.5" style="fill:#1D1D1F;" width="15" height="15"/>
	<rect x="131.082" y="162.5" style="fill:#1D1D1F;" width="15" height="15"/>
	<rect x="68.082" y="121" style="fill:#1D1D1F;" width="103" height="15"/>
</g>
<g>
	<path style="fill:#FFFFFF;" d="M307.733,53.669l13.428-6.686c-2.713-5.449-6.468-10.19-11.159-14.094l-9.594,11.531
		C303.489,46.984,305.954,50.096,307.733,53.669z"/>
	<path style="fill:#FFFFFF;" d="M299.772,26.541c-5.56-2.46-11.482-3.708-17.604-3.708v15c4.018,0,7.897,0.815,11.533,2.425
		L299.772,26.541z"/>
	<path style="fill:#FFFFFF;" d="M310.709,66.373c0,10.054-5.386,19.479-14.057,24.599l7.627,12.916
		c13.218-7.804,21.43-22.179,21.43-37.512c0.001-2.669-0.243-5.348-0.727-7.962l-14.75,2.729
		C310.55,62.856,310.71,64.615,310.709,66.373z"/>
	<rect x="303.582" y="205.95" style="fill:#FFFFFF;" width="15" height="47.39"/>
	<rect x="303.582" y="180.95" style="fill:#FFFFFF;" width="15" height="15"/>
	<rect x="303.582" y="155.95" style="fill:#FFFFFF;" width="15" height="15"/>
</g>
<path style="fill:#1D1D1F;" d="M187.613,438.548l104.456-104.456l38.259,38.279v53.677h15V366.16l-82.618-82.662
	c13.55-5.149,23.209-18.264,23.209-33.598V132.746h26.447l14.244,14.245l0,0l0.022,131.277l-16.413,16.417l60.824,60.822v70.541h15
	v-76.754l-54.611-54.611l10.202-10.204l-0.011-64.99l60.494,60.494l39.398-39.399L320.991,120.158l0,0
	c16.674-12.069,27.551-31.675,27.551-53.785C348.542,29.774,318.767,0,282.169,0s-66.374,29.774-66.374,66.373
	c0,20.688,9.518,39.191,24.401,51.373h-16.484c-21.299,0-38.626,17.328-38.626,38.627v21.973l-62.261,62.239l39.397,39.397
	l22.864-22.864v11.738l16.977,16.977h27.922v-15h-21.709l-8.189-8.189v-20.525l42.399-42.399v86.113h1.352l8.848,8.852
	L144.159,403.21l39.396,39.396l1.03-1.03v18.448l19.143,19.144h17.671c-1.112,2.757-1.731,5.765-1.731,8.916
	c0,13.188,10.729,23.917,23.917,23.917c13.188,0,23.917-10.729,23.917-23.917c0-3.151-0.618-6.159-1.731-8.916h96.961
	c-1.112,2.757-1.731,5.765-1.731,8.916c0.001,13.187,10.73,23.916,23.918,23.916s23.916-10.729,23.916-23.917
	c0-3.151-0.618-6.159-1.731-8.916h17.672l19.143-19.143v-21.477H187.613V438.548z M257.484,132.746h13.435V215.5h-13.435V132.746z
	 M420.296,240.589l-18.18,18.181l-60.498-60.498l-0.006-36.29l0,0L420.296,240.589z M230.795,66.373
	c0-28.327,23.047-51.373,51.374-51.373s51.373,23.046,51.373,51.373s-23.046,51.373-51.373,51.373S230.795,94.7,230.795,66.373z
	 M200.085,156.373c0-13.028,10.599-23.627,23.626-23.627h6.99l-30.617,30.606v-6.979H200.085z M144.039,240.587l98.445-98.409l0,0
	l0,0l0,0v36.328l0,0l-80.263,80.264L144.039,240.587z M270.919,230.5v19.399c0,8.901-5.584,16.523-13.435,19.545V230.5H270.919z
	 M165.372,403.21l97.897-97.897l18.183,18.184l-97.897,97.896L165.372,403.21z M252.502,488.083c0,4.917-4,8.917-8.917,8.917
	s-8.917-4-8.917-8.917c0-4.916,4-8.916,8.917-8.916S252.502,483.167,252.502,488.083z M393.835,488.083c0,4.917-4,8.917-8.916,8.917
	c-4.917,0-8.917-4-8.917-8.917c0-4.916,4-8.916,8.917-8.916C389.835,479.167,393.835,483.167,393.835,488.083z M428.919,453.811
	l-10.356,10.356H209.942l-10.356-10.356v-0.263h229.333V453.811z"/>
<g>
</g>
<g>
</g>
<g>
</g>
<g>
</g>
<g>
</g>
<g>
</g>
<g>
</g>
<g>
</g>
<g>
</g>
<g>
</g>
<g>
</g>
<g>
</g>
<g>
</g>
<g>
</g>
<g>
</g>
</svg>
