<?xml version="1.0" encoding="iso-8859-1"?>
<!-- Generator: Adobe Illustrator 19.0.0, SVG Export Plug-In . SVG Version: 6.00 Build 0)  -->
<svg xmlns="http://www.w3.org/2000/svg" xmlns:xlink="http://www.w3.org/1999/xlink" version="1.1" id="Layer_1" x="0px" y="0px" viewBox="0 0 512 512" style="enable-background:new 0 0 512 512;" xml:space="preserve" width="512" height="512">
<g>
	<g>
		<g id="XMLID_38_">
			<g>
				<g>
					<path style="fill:#E2E2E3;" d="M439.5,449.64v24.86h-65v-24.86c0-8.91,7.23-16.14,16.14-16.14h32.72       C432.27,433.5,439.5,440.73,439.5,449.64z"/>
				</g>
			</g>
		</g>
		<path style="fill:#B9C1C1;" d="M419.89,433.5h-29.25c-8.91,0-16.14,7.23-16.14,16.14v24.86h29.25v-24.86    C403.75,440.73,410.98,433.5,419.89,433.5z"/>
		<g id="XMLID_36_">
			<g>
				<g>
					<rect x="210.5" y="376.713" style="fill:#E2E2E3;" width="92" height="63.575"/>
				</g>
			</g>
		</g>
		<path style="fill:#B9C1C1;" d="M210.5,376.713v63.575H284l-27.246-25.143c-3.349-3.091-5.254-7.441-5.254-11.999v-26.433H210.5z"/>
		<g id="XMLID_33_">
			<g>
				<g>
					<path style="fill:#717483;" d="M421.48,178.55v187.9c0,9.97-8.08,18.05-18.05,18.05H109.57c-9.97,0-18.05-8.08-18.05-18.05       v-187.9c0-9.97,8.08-18.05,18.05-18.05h293.86C413.4,160.5,421.48,168.58,421.48,178.55z"/>
				</g>
			</g>
		</g>
		<path style="fill:#4C5574;" d="M237.52,366.45v-187.9c0-9.97,8.08-18.05,18.05-18.05h-146c-9.97,0-18.05,8.08-18.05,18.05v187.9    c0,9.97,8.08,18.05,18.05,18.05h146C245.6,384.5,237.52,376.42,237.52,366.45z"/>
		<g id="XMLID_34_">
			<g>
				<g>
					<path style="fill:#474755;" d="M396.48,197.407v150.186c0,6.576-5.331,11.907-11.907,11.907H128.427       c-6.576,0-11.907-5.331-11.907-11.907V197.407c0-6.576,5.331-11.907,11.907-11.907h256.146       C391.149,185.5,396.48,190.831,396.48,197.407z"/>
				</g>
			</g>
		</g>
		<g id="XMLID_37_">
			<g>
				<g>
					<path style="fill:#717483;" d="M316.53,461.7c0.62,2.99-1.72,5.8-4.78,5.8H200.27c-2.77,0-5.01-2.31-4.86-5.08       c0.5-9.31,5.22-19.24,15.09-29.92h92C309.6,441.81,314.39,451.52,316.53,461.7z"/>
				</g>
			</g>
		</g>
		<path style="fill:#4C5574;" d="M247.257,462.42c0.5-9.31,5.22-19.24,15.09-29.92H210.5c-9.87,10.68-14.59,20.61-15.09,29.92    c-0.15,2.77,2.09,5.08,4.86,5.08h51.847C249.347,467.5,247.107,465.19,247.257,462.42z"/>
		<g id="XMLID_44_">
			<g>
				<g>
					<path style="fill:#9B8580;" d="M504.5,473.93v19.14c0,3.55-2.88,6.43-6.43,6.43H13.93c-3.55,0-6.43-2.88-6.43-6.43v-19.14       c0-3.55,2.88-6.43,6.43-6.43h484.14C501.62,467.5,504.5,470.38,504.5,473.93z"/>
				</g>
			</g>
		</g>
		<path style="fill:#817067;" d="M498.07,482.285H13.93c-3.55,0-6.43-2.88-6.43-6.43v17.215c0,3.55,2.88,6.43,6.43,6.43h484.14    c3.55,0,6.43-2.88,6.43-6.43v-17.215C504.5,479.405,501.62,482.285,498.07,482.285z"/>
		<g id="XMLID_39_">
			<g>
				<g>
					<path style="fill:#FF395E;" d="M91.5,412.67v37.1c0,9.79-7.94,17.73-17.73,17.73H47.23c-9.79,0-17.73-7.94-17.73-17.73v-37.1       c0-2.3,1.87-4.17,4.17-4.17h53.66C89.63,408.5,91.5,410.37,91.5,412.67z"/>
				</g>
			</g>
		</g>
		<path style="fill:#B12E65;" d="M61.576,449.77v-37.1c0-2.3,1.87-4.17,4.17-4.17h-31c-2.3,0-4.17,1.87-4.17,4.17v37.1    c0,9.79,7.94,17.73,17.73,17.73h26.54c0.757,0,1.498-0.063,2.23-0.155C68.341,466.245,61.576,458.803,61.576,449.77z"/>
		<path style="fill:#FF395E;" d="M384.573,185.5H128.427c-6.576,0-11.907,5.331-11.907,11.907V229h279.96v-31.593    C396.48,190.831,391.149,185.5,384.573,185.5z"/>
		<g>
			<g>
				<circle style="fill:#842D65;" cx="142.5" cy="207.5" r="7"/>
			</g>
		</g>
		<g>
			<g>
				<circle style="fill:#EAB430;" cx="167" cy="208" r="7"/>
			</g>
		</g>
		<g>
			<g>
				<circle style="fill:#C5D65C;" cx="191.5" cy="208.5" r="7"/>
			</g>
		</g>
		<g>
			<g>
				<path style="fill:#C5D65C;" d="M191.5,271h-51c-4.143,0-7.5-3.358-7.5-7.5s3.357-7.5,7.5-7.5h51c4.143,0,7.5,3.358,7.5,7.5      S195.643,271,191.5,271z"/>
			</g>
		</g>
		<g>
			<g>
				<path style="fill:#7CA1D8;" d="M229.5,270h-14c-4.143,0-7.5-3.358-7.5-7.5s3.357-7.5,7.5-7.5h14c4.143,0,7.5,3.358,7.5,7.5      S233.643,270,229.5,270z"/>
			</g>
		</g>
		<g>
			<g>
				<path style="fill:#FF395E;" d="M344.5,271h-94c-4.143,0-7.5-3.358-7.5-7.5s3.357-7.5,7.5-7.5h94c4.143,0,7.5,3.358,7.5,7.5      S348.643,271,344.5,271z"/>
			</g>
		</g>
		<g>
			<g>
				<path style="fill:#EAB430;" d="M218.5,297h-51c-4.143,0-7.5-3.358-7.5-7.5s3.357-7.5,7.5-7.5h51c4.143,0,7.5,3.358,7.5,7.5      S222.643,297,218.5,297z"/>
			</g>
		</g>
		<g>
			<g>
				<path style="fill:#FF395E;" d="M215.5,324h-17c-4.143,0-7.5-3.358-7.5-7.5s3.357-7.5,7.5-7.5h17c4.143,0,7.5,3.358,7.5,7.5      S219.643,324,215.5,324z"/>
			</g>
		</g>
		<g>
			<g>
				<path style="fill:#C5D65C;" d="M309.5,297h-68c-4.143,0-7.5-3.358-7.5-7.5s3.357-7.5,7.5-7.5h68c4.143,0,7.5,3.358,7.5,7.5      S313.643,297,309.5,297z"/>
			</g>
		</g>
		<g>
			<g>
				<path style="fill:#C5D65C;" d="M276.5,324h-40c-4.143,0-7.5-3.358-7.5-7.5s3.357-7.5,7.5-7.5h40c4.143,0,7.5,3.358,7.5,7.5      S280.643,324,276.5,324z"/>
			</g>
		</g>
		<g>
			<g>
				<path style="fill:#7CA1D8;" d="M346.5,324h-50c-4.143,0-7.5-3.358-7.5-7.5s3.357-7.5,7.5-7.5h50c4.143,0,7.5,3.358,7.5,7.5      S350.643,324,346.5,324z"/>
			</g>
		</g>
		<g id="XMLID_43_">
			<g>
				<g>
					<path style="fill:#C9CACA;" d="M485.5,13.5h-74c-4.97,0-9,4.03-9,9v16v49h68h15c4.97,0,9-4.03,9-9v-56       C494.5,17.53,490.47,13.5,485.5,13.5z"/>
				</g>
			</g>
		</g>
		<g id="XMLID_42_">
			<g>
				<g>
					<path style="fill:#E2E2E3;" d="M470.5,47.5v61c0,4.97-4.03,9-9,9h-74c-4.97,0-9-4.03-9-9v-61c0-4.97,4.03-9,9-9h74       C466.47,38.5,470.5,42.53,470.5,47.5z"/>
				</g>
			</g>
		</g>
		<g id="XMLID_40_">
			<g>
				<g>
					<path style="fill:#7DBFEC;" d="M127.5,22.63v74.74c0,4.97-4.03,9-9,9h-90c-4.97,0-9-4.03-9-9V22.63c0-4.97,4.03-9,9-9h90       C123.47,13.63,127.5,17.66,127.5,22.63z"/>
				</g>
			</g>
		</g>
		<g id="XMLID_41_">
			<g>
				<g>
					<path style="fill:#FFFFFF;" d="M88.5,53.5c7.18,0,13,5.82,13,13s-5.82,13-13,13h-34c-7.18,0-13-5.82-13-13s5.82-13,13-13h0.13       c0.99-8.44,8.16-15,16.87-15s15.88,6.56,16.87,15H88.5z"/>
				</g>
			</g>
		</g>
		<path style="fill:#FF395E;" d="M461.5,38.5h-74c-4.97,0-9,4.03-9,9v15.155h92V47.5C470.5,42.53,466.47,38.5,461.5,38.5z"/>
	</g>
	<g>
		<path style="fill:#000100;" d="M403.981,360.569V317.5c0-4.142-3.357-7.5-7.5-7.5s-7.5,3.358-7.5,7.5V357H124.019V241.5h264.963    v46c0,4.142,3.357,7.5,7.5,7.5s7.5-3.358,7.5-7.5V234v-39.071v-0.499c0-6.303-5.128-11.431-11.431-11.431h-0.499H120.948h-0.499    c-6.303,0-11.431,5.128-11.431,11.431v0.499V234v126.569c0,6.303,5.128,11.431,11.431,11.431h272.102    C398.854,372,403.981,366.872,403.981,360.569z M124.019,198h264.963v28.5H124.019V198z"/>
		<path style="fill:#000100;" d="M498.073,465H447v-10.356C447,441.606,436.394,431,423.355,431h-32.711    C377.606,431,367,441.606,367,454.644V465h-43.169c-2.169-10.218-6.817-20.291-13.831-29.979V397h93.435    c14.087,0,25.547-11.46,25.547-25.547V183.547c0-14.086-11.46-25.547-25.547-25.547H381.04l43.32-39h37.143    C470.6,119,478,111.6,478,102.503V89h7.503C494.6,89,502,81.6,502,72.503V16.497C502,7.4,494.6,0,485.503,0h-74.006    C402.4,0,395,7.4,395,16.497V25h-7.503C378.4,25,371,32.4,371,41.497v61.006C371,111.6,378.4,119,387.497,119h14.444l-43.32,39    H149.126l-49.73-50.13h19.107c9.097,0,16.497-7.4,16.497-16.497V16.627c0-9.097-7.4-16.497-16.497-16.497H28.497    C19.4,0.13,12,7.531,12,16.627v74.745c0,9.097,7.4,16.497,16.497,16.497h49.77l49.73,50.13h-18.432    c-14.087,0-25.547,11.46-25.547,25.547v187.906c0,14.086,11.46,25.547,25.547,25.547H203v37.633    C194.163,444.805,189.157,455,188.086,465H96.825c0.571-1.282,1.043-2.617,1.395-4h4.899c11.514,0,20.881-9.367,20.881-20.881    v-5.238c0-11.514-9.367-20.881-20.881-20.881H98.4c-1.543-4.641-5.918-8-11.07-8H33.67C27.235,406,22,411.235,22,417.67v37.101    c0,3.641,0.781,7.1,2.175,10.229H13.927C6.247,465,0,471.248,0,478.927v19.146C0,505.752,6.247,512,13.927,512h484.146    c7.68,0,13.927-6.248,13.927-13.927v-19.146C512,471.248,505.753,465,498.073,465z M410,16.497c0-0.826,0.672-1.497,1.497-1.497    h74.006c0.825,0,1.497,0.671,1.497,1.497v56.006c0,0.826-0.672,1.497-1.497,1.497H478V41.497C478,32.4,470.6,25,461.503,25H410    V16.497z M387.497,40H402.5h59.003c0.825,0,1.497,0.671,1.497,1.497v7.658h-77v-7.658C386,40.671,386.672,40,387.497,40z     M386,102.503V64.155h77V81.5v21.003c0,0.826-0.672,1.497-1.497,1.497h-74.006C386.672,104,386,103.329,386,102.503z M27,91.373    V16.627c0-0.826,0.672-1.497,1.497-1.497h90.006c0.825,0,1.497,0.671,1.497,1.497v74.745c0,0.826-0.672,1.497-1.497,1.497H28.497    C27.672,92.87,27,92.198,27,91.373z M382,454.644c0-4.766,3.878-8.644,8.645-8.644h32.711c4.767,0,8.645,3.878,8.645,8.644V465    h-50V454.644z M99.019,371.453V183.547c0-5.815,4.731-10.547,10.547-10.547h293.869c5.815,0,10.547,4.731,10.547,10.547v187.906    c0,5.815-4.731,10.547-10.547,10.547H302.5h-92H109.565C103.75,382,99.019,377.269,99.019,371.453z M295,397v33h-77v-33H295z     M213.865,445h84.827c4.597,6.585,7.849,13.288,9.706,20H203.222C204.309,458.716,207.876,452.011,213.865,445z M109,434.881    v5.238c0,3.243-2.638,5.881-5.881,5.881H99v-17h4.119C106.362,429,109,431.638,109,434.881z M37,454.771V421h47v0.5v32v1.271    C84,460.411,79.411,465,73.771,465H47.229C41.589,465,37,460.411,37,454.771z M497,497H15v-17h32.229h26.541h126.502h111.479    H374.5h65H497V497z"/>
		<path style="fill:#000100;" d="M416.74,69.34c-2.298-3.446-6.953-4.377-10.4-2.08l-12,8c-1.817,1.211-3.017,3.156-3.283,5.324    c-0.268,2.168,0.425,4.345,1.894,5.961l10,11c1.48,1.628,3.513,2.455,5.552,2.455c1.801,0,3.606-0.644,5.043-1.951    c3.065-2.786,3.291-7.529,0.505-10.594l-4.137-4.55l4.747-3.165C418.106,77.443,419.038,72.786,416.74,69.34z"/>
		<path style="fill:#000100;" d="M449.66,75.26l-12-8c-3.446-2.298-8.103-1.367-10.4,2.08c-2.298,3.446-1.366,8.103,2.08,10.4    l4.747,3.165l-4.137,4.55c-2.786,3.065-2.561,7.808,0.505,10.594c1.437,1.307,3.242,1.951,5.043,1.951    c2.039,0,4.071-0.827,5.552-2.455l10-11c1.469-1.616,2.161-3.793,1.894-5.961C452.677,78.416,451.478,76.471,449.66,75.26z"/>
		<path style="fill:#000100;" d="M94.429,40.874C90.918,31.518,81.896,25,71.5,25s-19.418,6.518-22.929,15.874    C40.149,43.423,34,51.257,34,60.5C34,71.804,43.196,81,54.5,81h34c11.304,0,20.5-9.196,20.5-20.5    C109,51.257,102.851,43.423,94.429,40.874z M88.5,66h-34c-3.032,0-5.5-2.467-5.5-5.5s2.468-5.5,5.5-5.5h0.128    c3.804,0,7.006-2.848,7.449-6.625C62.637,43.6,66.688,40,71.5,40s8.863,3.6,9.423,8.375C81.366,52.152,84.568,55,88.372,55H88.5    c3.032,0,5.5,2.467,5.5,5.5S91.532,66,88.5,66z"/>
	</g>
</g>















</svg>
